<svg width="539" height="443" viewBox="0 0 539 443" fill="none" xmlns="http://www.w3.org/2000/svg">
<g clip-path="url(#clip0_94_228)">
<path d="M286.6 103.065H100.149C95.6547 103.06 91.3463 101.275 88.1686 98.1004C84.9909 94.9261 83.2035 90.6222 83.1985 86.1331V16.9321C83.2036 12.443 84.991 8.13924 88.1687 4.96495C91.3463 1.79066 95.6547 0.00510497 100.149 0H286.6C291.094 0.00510303 295.402 1.79066 298.58 4.96495C301.758 8.13924 303.545 12.443 303.55 16.9321V86.1331C303.545 90.6222 301.758 94.9261 298.58 98.1004C295.402 101.275 291.094 103.06 286.6 103.065Z" fill="white"/>
<path d="M286.6 103.065H100.149C95.6547 103.06 91.3463 101.275 88.1686 98.1004C84.9909 94.9261 83.2035 90.6222 83.1985 86.1331V16.9321C83.2036 12.443 84.991 8.13924 88.1687 4.96495C91.3463 1.79066 95.6547 0.00510497 100.149 0H286.6C291.094 0.00510303 295.402 1.79066 298.58 4.96495C301.758 8.13924 303.545 12.443 303.55 16.9321V86.1331C303.545 90.6222 301.758 94.9261 298.58 98.1004C295.402 101.275 291.094 103.06 286.6 103.065ZM100.149 1.47236C96.0455 1.47696 92.1117 3.10723 89.2103 6.0055C86.309 8.90378 84.677 12.8334 84.6724 16.9321V86.1331C84.677 90.2318 86.3091 94.1614 89.2104 97.0597C92.1118 99.9579 96.0455 101.588 100.149 101.593H286.6C290.703 101.588 294.637 99.9579 297.538 97.0597C300.44 94.1614 302.072 90.2318 302.076 86.1331V16.9321C302.072 12.8334 300.44 8.90378 297.538 6.0055C294.637 3.10723 290.703 1.47696 286.6 1.47236H100.149Z" fill="#3F3D56"/>
<path d="M357.152 112.483H257.979C257.353 112.476 256.73 112.397 256.122 112.248C254.308 111.813 252.694 110.778 251.541 109.313C250.388 107.847 249.764 106.036 249.769 104.172V70.4986C249.773 68.296 250.651 66.1847 252.211 64.6279C253.77 63.0712 255.885 62.1961 258.09 62.1946H357.152C358.488 62.1911 359.804 62.5129 360.986 63.1321C361.457 63.3761 361.903 63.6664 362.316 63.9988C363.303 64.7705 364.1 65.7572 364.647 66.8837C365.194 68.0101 365.477 69.2466 365.473 70.4986V104.172C365.47 106.375 364.593 108.488 363.033 110.046C361.473 111.604 359.358 112.481 357.152 112.483Z" fill="white"/>
<path d="M350.505 111.747C355.008 100.815 359.751 89.9903 364.736 79.2739V97.4429C361.337 102.608 357.404 107.402 353.003 111.747H350.505Z" fill="#E6E6E6"/>
<path d="M361.854 64.5724C352.944 80.5401 343.622 96.2649 333.886 111.747H332.191C342.089 96.022 351.573 80.0346 360.645 63.7847C361.074 64.0064 361.478 64.2703 361.854 64.5724Z" fill="#E6E6E6"/>
<path d="M296.471 82.0052C290.648 92.2888 284.223 102.22 277.229 111.747H267.125C273.743 103.693 280.366 95.6393 286.993 87.5855C288.895 85.2665 290.958 82.8371 293.81 81.8948L296.471 82.0052Z" fill="#E6E6E6"/>
<path d="M283.043 80.3561C281.989 81.453 280.98 82.594 280.029 83.7793C277.936 86.297 275.873 88.8368 273.802 91.3693C272.512 92.9447 271.222 94.5201 269.948 96.0956C269.543 95.8358 269.158 95.5454 268.798 95.2269C266.762 93.4613 265.499 90.9692 265.279 88.2845C265.06 85.5999 265.903 82.9364 267.626 80.8646C269.349 78.7929 271.816 77.4777 274.498 77.201C277.18 76.9243 279.864 77.7081 281.975 79.3843C282.355 79.6807 282.712 80.0055 283.043 80.3561Z" fill="#E9204F"/>
<path d="M340.033 87.5117L320.665 80.437L311.048 76.9254C307.916 75.7844 304.791 74.4813 301.556 73.6568C298.742 72.8536 295.755 72.892 292.963 73.7672C290.473 74.6876 288.195 76.0997 286.264 77.9193C285.409 78.707 284.581 79.5193 283.78 80.3561C282.726 81.453 281.717 82.594 280.766 83.7793C278.673 86.297 276.61 88.8369 274.539 91.3693C273.249 92.9447 271.959 94.5201 270.684 96.0956C266.425 101.3 262.19 106.517 257.979 111.747C257.413 111.74 256.849 111.669 256.299 111.533C260.691 106.086 265.103 100.65 269.535 95.2269C270.043 94.5938 270.566 93.9533 271.082 93.3202C273.242 90.6773 275.403 88.0369 277.568 85.3989C279.241 83.3597 280.899 81.3057 282.712 79.3843C282.874 79.2076 283.036 79.0383 283.205 78.8616C286.883 75.0629 291.474 71.7059 296.972 71.6176C300.207 71.5661 303.332 72.5893 306.339 73.6715C309.574 74.8421 312.802 76.0347 316.037 77.2199L335.537 84.3461L340.416 86.1277C341.278 86.4369 340.91 87.8357 340.033 87.5117Z" fill="#E6E6E6"/>
<path d="M357.152 112.483H257.979C257.353 112.476 256.73 112.397 256.122 112.248C254.308 111.813 252.694 110.778 251.541 109.313C250.388 107.847 249.764 106.036 249.769 104.172V70.4986C249.773 68.296 250.651 66.1847 252.211 64.6279C253.77 63.0712 255.885 62.1961 258.09 62.1946H357.152C358.488 62.1911 359.804 62.5129 360.986 63.1321C361.457 63.3761 361.903 63.6664 362.316 63.9988C363.303 64.7705 364.1 65.7572 364.647 66.8837C365.194 68.0101 365.477 69.2466 365.473 70.4986V104.172C365.47 106.375 364.593 108.488 363.033 110.046C361.473 111.604 359.358 112.481 357.152 112.483ZM258.09 63.667C256.276 63.668 254.536 64.3879 253.252 65.6686C251.969 66.9494 251.246 68.6864 251.243 70.4986V104.172C251.239 105.706 251.753 107.196 252.701 108.402C253.65 109.609 254.979 110.46 256.472 110.818C256.968 110.94 257.477 111.004 257.988 111.011H357.152C358.967 111.009 360.707 110.287 361.991 109.005C363.274 107.723 363.996 105.985 363.999 104.172V70.4986C364.002 69.4683 363.769 68.4509 363.318 67.5242C362.868 66.5974 362.211 65.7857 361.399 65.1512C361.06 64.8779 360.694 64.6393 360.307 64.4387C359.334 63.929 358.251 63.6641 357.152 63.667H258.09Z" fill="#3F3D56"/>
<path d="M159.921 144.651H16.9501C12.4562 144.646 8.14783 142.86 4.97016 139.686C1.79248 136.512 0.00504811 132.208 0 127.719V102.688C0.00510845 98.1994 1.79256 93.8956 4.97022 90.7213C8.14789 87.547 12.4563 85.7615 16.9501 85.7563H159.921C164.415 85.7615 168.723 87.547 171.901 90.7213C175.078 93.8956 176.866 98.1994 176.871 102.688V127.719C176.866 132.208 175.079 136.512 171.901 139.686C168.723 142.86 164.415 144.646 159.921 144.651Z" fill="white"/>
<path d="M159.921 144.651H16.9501C12.4562 144.646 8.14783 142.86 4.97016 139.686C1.79248 136.512 0.00504811 132.208 0 127.719V102.688C0.00510845 98.1994 1.79256 93.8956 4.97022 90.7213C8.14789 87.547 12.4563 85.7615 16.9501 85.7563H159.921C164.415 85.7615 168.723 87.547 171.901 90.7213C175.078 93.8956 176.866 98.1994 176.871 102.688V127.719C176.866 132.208 175.079 136.512 171.901 139.686C168.723 142.86 164.415 144.646 159.921 144.651ZM16.9501 87.2287C12.847 87.2333 8.91324 88.8636 6.01189 91.7619C3.11053 94.6601 1.47853 98.5897 1.47393 102.688V127.719C1.47859 131.817 3.11061 135.747 6.01195 138.645C8.9133 141.543 12.847 143.174 16.9501 143.178H159.921C164.024 143.174 167.958 141.543 170.859 138.645C173.76 135.747 175.392 131.817 175.397 127.719V102.688C175.393 98.5897 173.76 94.6601 170.859 91.7619C167.958 88.8636 164.024 87.2333 159.921 87.2287H16.9501Z" fill="#3F3D56"/>
<path d="M58.9297 130.572H35.9451C34.7165 130.571 33.5386 130.083 32.6699 129.215C31.8011 128.347 31.3125 127.17 31.3111 125.943V104.464C31.3125 103.237 31.8011 102.06 32.6699 101.192C33.5386 100.324 34.7165 99.8363 35.9451 99.835H58.9297C60.1583 99.8363 61.3362 100.324 62.205 101.192C63.0737 102.06 63.5624 103.237 63.5638 104.464V125.943C63.5624 127.17 63.0737 128.347 62.205 129.215C61.3362 130.083 60.1583 130.571 58.9297 130.572Z" fill="#E9204F"/>
<path d="M99.9278 130.572H76.9432C75.7146 130.571 74.5367 130.083 73.668 129.215C72.7992 128.347 72.3106 127.17 72.3092 125.943V104.464C72.3106 103.237 72.7992 102.06 73.668 101.192C74.5367 100.324 75.7146 99.8363 76.9432 99.835H99.9278C101.156 99.8363 102.334 100.324 103.203 101.192C104.072 102.06 104.561 103.237 104.562 104.464V125.943C104.56 127.17 104.072 128.347 103.203 129.215C102.334 130.083 101.156 130.571 99.9278 130.572Z" fill="#E6E6E6"/>
<path d="M140.926 130.572H117.941C116.713 130.571 115.535 130.083 114.666 129.215C113.797 128.347 113.309 127.17 113.307 125.943V104.464C113.309 103.237 113.797 102.06 114.666 101.192C115.535 100.324 116.713 99.8363 117.941 99.835H140.926C142.154 99.8363 143.332 100.324 144.201 101.192C145.07 102.06 145.559 103.237 145.56 104.464V125.943C145.559 127.17 145.07 128.347 144.201 129.215C143.332 130.083 142.154 130.571 140.926 130.572Z" fill="#E6E6E6"/>
<path d="M202.465 40.8494H172.986C172.204 40.8494 171.454 40.5391 170.902 39.9869C170.349 39.4347 170.038 38.6857 170.038 37.9047C170.038 37.1237 170.349 36.3747 170.902 35.8224C171.454 35.2702 172.204 34.96 172.986 34.96H202.465C203.246 34.96 203.996 35.2702 204.549 35.8224C205.102 36.3747 205.412 37.1237 205.412 37.9047C205.412 38.6857 205.102 39.4347 204.549 39.9869C203.996 40.5391 203.246 40.8494 202.465 40.8494Z" fill="#CCCCCC"/>
<path d="M265.843 57.0452H172.249C171.467 57.0452 170.717 56.7349 170.165 56.1827C169.612 55.6305 169.301 54.8815 169.301 54.1005C169.301 53.3195 169.612 52.5705 170.165 52.0182C170.717 51.466 171.467 51.1558 172.249 51.1558H265.843C266.625 51.1558 267.375 51.466 267.928 52.0182C268.481 52.5705 268.791 53.3195 268.791 54.1005C268.791 54.8815 268.481 55.6305 267.928 56.1827C267.375 56.7349 266.625 57.0452 265.843 57.0452Z" fill="#CCCCCC"/>
<path d="M137.977 65.7461C148.893 65.7461 157.742 56.9066 157.742 46.0026C157.742 35.0985 148.893 26.259 137.977 26.259C127.062 26.259 118.213 35.0985 118.213 46.0026C118.213 56.9066 127.062 65.7461 137.977 65.7461Z" fill="#E9204F"/>
<path d="M353.005 230.784H166.554C162.06 230.779 157.751 228.993 154.574 225.819C151.396 222.645 149.608 218.341 149.603 213.852V144.651C149.609 140.162 151.396 135.858 154.574 132.683C157.751 129.509 162.06 127.724 166.554 127.719H353.005C357.499 127.724 361.807 129.509 364.985 132.683C368.163 135.858 369.95 140.162 369.955 144.651V213.852C369.95 218.341 368.163 222.645 364.985 225.819C361.807 228.993 357.499 230.779 353.005 230.784Z" fill="white"/>
<path d="M353.005 230.784H166.554C162.06 230.779 157.751 228.993 154.574 225.819C151.396 222.645 149.608 218.341 149.603 213.852V144.651C149.609 140.162 151.396 135.858 154.574 132.683C157.751 129.509 162.06 127.724 166.554 127.719H353.005C357.499 127.724 361.807 129.509 364.985 132.683C368.163 135.858 369.95 140.162 369.955 144.651V213.852C369.95 218.341 368.163 222.645 364.985 225.819C361.807 228.993 357.499 230.779 353.005 230.784ZM166.554 129.191C162.45 129.195 158.517 130.826 155.615 133.724C152.714 136.622 151.082 140.552 151.077 144.651V213.852C151.082 217.95 152.714 221.88 155.615 224.778C158.517 227.676 162.45 229.307 166.554 229.311H353.005C357.108 229.307 361.042 227.676 363.943 224.778C366.845 221.88 368.477 217.95 368.481 213.852V144.651C368.477 140.552 366.845 136.622 363.943 133.724C361.042 130.826 357.108 129.195 353.005 129.191H166.554Z" fill="#3F3D56"/>
<path d="M239.173 155.137H207.854C207.461 155.137 207.072 155.06 206.708 154.911C206.345 154.761 206.015 154.541 205.737 154.263C205.458 153.986 205.238 153.656 205.087 153.293C204.936 152.931 204.859 152.542 204.859 152.149C204.859 151.756 204.936 151.367 205.087 151.005C205.238 150.642 205.458 150.312 205.737 150.035C206.015 149.757 206.345 149.537 206.708 149.387C207.072 149.238 207.461 149.161 207.854 149.161H239.173C239.965 149.163 240.725 149.478 241.285 150.038C241.844 150.598 242.159 151.357 242.159 152.149C242.159 152.941 241.844 153.7 241.285 154.26C240.725 154.82 239.965 155.135 239.173 155.137Z" fill="#E9204F"/>
<path d="M309.378 167.356H207.854C207.061 167.356 206.3 167.041 205.74 166.481C205.179 165.921 204.864 165.161 204.864 164.368C204.864 163.576 205.179 162.816 205.74 162.256C206.3 161.696 207.061 161.381 207.854 161.381H309.378C310.172 161.381 310.932 161.696 311.493 162.256C312.054 162.816 312.369 163.576 312.369 164.368C312.369 165.161 312.054 165.921 311.493 166.481C310.932 167.041 310.172 167.356 309.378 167.356Z" fill="#E6E6E6"/>
<path d="M309.378 181.382H207.854C207.462 181.382 207.073 181.305 206.71 181.155C206.347 181.005 206.017 180.785 205.74 180.507C205.462 180.23 205.242 179.9 205.091 179.538C204.941 179.175 204.864 178.787 204.864 178.395C204.864 178.002 204.941 177.614 205.091 177.251C205.242 176.889 205.462 176.559 205.74 176.282C206.017 176.005 206.347 175.785 206.71 175.634C207.073 175.484 207.462 175.407 207.854 175.407H309.378C310.172 175.407 310.932 175.722 311.493 176.282C312.054 176.842 312.369 177.602 312.369 178.395C312.369 179.187 312.054 179.947 311.493 180.507C310.932 181.067 310.172 181.382 309.378 181.382Z" fill="#E6E6E6"/>
<path d="M309.378 195.408H207.854C207.461 195.409 207.072 195.332 206.708 195.182C206.345 195.032 206.015 194.812 205.737 194.535C205.458 194.257 205.238 193.928 205.087 193.565C204.936 193.202 204.859 192.813 204.859 192.421C204.859 192.028 204.936 191.639 205.087 191.276C205.238 190.914 205.458 190.584 205.737 190.307C206.015 190.029 206.345 189.809 206.708 189.659C207.072 189.509 207.461 189.432 207.854 189.433H309.378C310.171 189.434 310.93 189.75 311.49 190.31C312.05 190.87 312.364 191.629 312.364 192.421C312.364 193.212 312.05 193.971 311.49 194.532C310.93 195.092 310.171 195.407 309.378 195.408Z" fill="#E6E6E6"/>
<path d="M309.378 209.435H207.854C207.061 209.435 206.3 209.12 205.74 208.56C205.179 207.999 204.864 207.239 204.864 206.447C204.864 205.655 205.179 204.895 205.74 204.335C206.3 203.774 207.061 203.459 207.854 203.459H309.378C310.172 203.459 310.932 203.774 311.493 204.335C312.054 204.895 312.369 205.655 312.369 206.447C312.369 207.239 312.054 207.999 311.493 208.56C310.932 209.12 310.172 209.435 309.378 209.435Z" fill="#E6E6E6"/>
<path d="M441.077 430.605L430.844 430.604L425.975 391.172L441.08 391.172L441.077 430.605Z" fill="#FFB6B6"/>
<path d="M441.438 441.269L409.967 441.268V440.871C409.967 437.625 411.258 434.513 413.555 432.219C415.852 429.924 418.968 428.635 422.216 428.635L427.965 424.278L438.691 428.635L441.438 428.635L441.438 441.269Z" fill="#2F2E41"/>
<path d="M512.808 411.8L504.437 417.679L477.749 388.221L490.104 379.542L512.808 411.8Z" fill="#FFB6B6"/>
<path d="M519.244 420.317L493.5 438.398L493.271 438.073C491.403 435.419 490.667 432.131 491.224 428.934C491.782 425.737 493.588 422.892 496.246 421.026L496.246 421.025L498.44 414.158L509.723 411.56L511.97 409.981L519.244 420.317Z" fill="#2F2E41"/>
<path d="M481.852 234.43L482.702 236.245C488.292 248.173 489.721 261.508 487.549 274.498C487.387 275.005 487.418 275.554 487.635 276.04C488.982 277.618 486.869 284.475 485.657 288.304L484.565 295.075C484.565 295.075 486.376 301.364 483.626 300.902C480.876 300.44 484.971 307.147 482.348 308.828L475.543 351.027L503.934 397.77L493.419 413.001L451.357 358.905L450.832 310.06L444.522 349.451L443.997 411.426L424.867 409.394L417.858 349.309L424.543 266.214L435.059 230.185L481.852 234.43Z" fill="#2F2E41"/>
<path d="M363.377 220.004C364.369 218.898 365.754 218.222 367.237 218.12C368.72 218.018 370.184 218.498 371.318 219.459C371.546 219.658 371.756 219.875 371.948 220.108L390.696 213.41L397.445 221.717L370.77 228.119C369.739 228.838 368.499 229.195 367.244 229.136C365.988 229.076 364.788 228.603 363.83 227.79C363.289 227.322 362.846 226.753 362.525 226.114C362.205 225.475 362.014 224.78 361.962 224.067C361.911 223.354 362.001 222.639 362.226 221.961C362.452 221.282 362.809 220.656 363.277 220.115C363.31 220.078 363.343 220.04 363.377 220.004Z" fill="#FFB6B6"/>
<path d="M468.708 126.246L453.232 126.983L445.831 139.754L435.316 142.905L426.378 164.964L431.86 233.729C431.86 233.729 432.959 237.888 430.936 237.281C428.912 236.673 429.737 241.886 429.737 241.886L422.28 270.538L490.08 264.648L486.315 234.292C486.315 234.292 491.55 234.46 487.869 230.784C484.189 227.107 482.399 228.279 485.935 223.932C489.47 219.586 489.996 216.435 489.996 216.435L491.573 194.901L494.173 164.596C494.586 159.787 493.796 154.951 491.873 150.523C489.951 146.095 486.957 142.214 483.161 139.229L468.708 126.246Z" fill="#E9204F"/>
<path d="M505.235 276.355C506.066 275.124 506.383 273.617 506.119 272.156C505.855 270.694 505.031 269.393 503.821 268.53C503.572 268.358 503.31 268.207 503.037 268.079L504.953 248.281L495.239 243.776L495.549 271.179C495.104 272.353 495.06 273.642 495.425 274.843C495.79 276.045 496.543 277.092 497.566 277.821C498.152 278.23 498.813 278.52 499.512 278.674C500.21 278.829 500.932 278.844 501.636 278.719C502.341 278.594 503.014 278.332 503.617 277.948C504.219 277.564 504.741 277.064 505.151 276.479C505.179 276.438 505.207 276.397 505.235 276.355Z" fill="#FFB6B6"/>
<path d="M490.576 147.815C490.576 147.815 512.862 200.848 512.189 221.214L504.819 258.759L494.502 258.023L495.239 224.158C499.004 220.313 483.248 198.599 478.054 183.317L490.576 147.815Z" fill="#E9204F"/>
<path d="M436.368 142.38C436.368 142.38 408.701 192.705 397.987 207.506L389.853 213.852V224.158L408.765 224.575C408.765 224.575 436.893 201.204 435.842 189.649C434.79 178.094 436.368 142.38 436.368 142.38Z" fill="#E9204F"/>
<path d="M460.683 122.7C471.522 122.7 480.309 113.922 480.309 103.094C480.309 92.2663 471.522 83.4885 460.683 83.4885C449.843 83.4885 441.056 92.2663 441.056 103.094C441.056 113.922 449.843 122.7 460.683 122.7Z" fill="#FFB6B6"/>
<path d="M468.267 121.093C462.635 120.908 462.123 119.422 456.491 119.238C454.698 119.179 452.581 118.933 451.714 117.364C451.097 116.246 451.381 114.839 451.924 113.684C452.567 112.581 453.146 111.443 453.659 110.274C453.969 109.358 454.05 108.38 453.896 107.426C453.742 106.471 453.357 105.568 452.776 104.795C452.194 104.022 451.433 103.402 450.558 102.989C449.683 102.576 448.72 102.382 447.753 102.423C446.039 102.497 444.429 103.302 442.72 103.45C440.376 103.651 435.193 95.9202 436.272 93.8318C437.323 91.7989 439.437 90.2652 439.769 88.0017C439.986 86.5212 439.375 85.0502 439.291 83.5563C439.167 81.3412 444.788 86.3358 443.759 84.3699C441.233 79.5476 465.03 73.5691 468.947 79.6096C470.412 81.8671 473.021 81.7131 475.347 83.069C476.871 83.9576 480.72 87.0232 481.595 88.934C482.399 90.8837 482.779 92.982 482.71 95.0895C482.745 104.891 481.25 113.907 473.336 119.701" fill="#2F2E41"/>
<path d="M376.545 437.186C371.223 437.654 365.864 436.93 360.858 435.064C355.852 433.199 351.327 430.24 347.613 426.404C342.756 421.289 339.422 414.705 336.199 408.337C335.261 406.484 334.291 404.568 333.304 402.732C332.204 400.73 331.729 398.444 331.941 396.17C332.153 393.896 333.041 391.738 334.492 389.972C335.882 388.208 337.77 386.899 339.911 386.216C342.052 385.533 344.35 385.505 346.507 386.138L346.977 386.274L351.21 402.774C351.842 400.313 353.197 394.768 354.053 389.335L354.125 388.88L354.547 389.067C358.967 391.021 363.123 393.523 366.918 396.514C373.639 401.9 379.106 408.683 382.939 416.393C386.771 424.103 388.877 432.553 389.109 441.158L389.12 441.671L376.545 437.186Z" fill="#F2F2F2"/>
<path d="M538.123 442.774L332.694 443C332.461 443 332.238 442.907 332.074 442.743C331.909 442.579 331.817 442.356 331.817 442.123C331.817 441.891 331.909 441.668 332.074 441.503C332.238 441.339 332.461 441.247 332.694 441.247L538.123 441.021C538.238 441.02 538.352 441.043 538.459 441.086C538.566 441.13 538.663 441.195 538.745 441.276C538.826 441.358 538.891 441.454 538.936 441.561C538.98 441.668 539.003 441.782 539.003 441.897C539.003 442.012 538.98 442.127 538.936 442.233C538.891 442.34 538.826 442.436 538.745 442.518C538.663 442.599 538.566 442.664 538.459 442.708C538.352 442.752 538.238 442.774 538.123 442.774Z" fill="#CACACA"/>
</g>
<defs>
<clipPath id="clip0_94_228">
<rect width="539" height="443" fill="white"/>
</clipPath>
</defs>
</svg>
